<?xml version="1.0" encoding="utf-8"?>
<!-- Generator: Adobe Illustrator 21.0.0, SVG Export Plug-In . SVG Version: 6.00 Build 0)  -->
<svg version="1.1" id="Layer_1" xmlns="http://www.w3.org/2000/svg" xmlns:xlink="http://www.w3.org/1999/xlink" x="0px" y="0px"
	 viewBox="0 0 100 131.1" style="enable-background:new 0 0 100 131.1;" xml:space="preserve">
<style type="text/css">
	.st0{fill:#D6D6D6;}
</style>
<path class="st0" d="M100,113.9C100,111.8,100,113.6,100,113.9z M50,131.1c-42.7,0-50-14.8-50-14.8c0-1.7,0-2.7,0-3.2
	c0,0.3,0,0.2,0.1-2.3c0.6-30,4.9-38.7,35.4-44.2c0,0,4.4,5.5,14.5,5.5s14.5-5.5,14.5-5.5c30.9,5.6,35,14.3,35.5,45.2
	c0,2,0,2.3,0.1,2.1c0,0.5,0,1.3,0,2.4C100,116.3,92.7,131.1,50,131.1z M50,64.1c-14.6,0-26.5-14.3-26.5-32.1C23.5,14.3,27.4,0,50,0
	C72.6,0,76.5,14.3,76.5,32C76.5,49.7,64.6,64.1,50,64.1z M0,113C0,112.7,0,112,0,113z"/>
</svg>
