<svg xmlns="http://www.w3.org/2000/svg" width="31" height="30" viewBox="0 0 31 30">
  <defs>
    <style>
      .cls-1 {
        fill-rule: evenodd;
        opacity: 0.65;
      }
    </style>
  </defs>
  <path class="cls-1" d="M29.169,15.163a0.829,0.829,0,0,0-.831.835V23.59a3.737,3.737,0,0,1-3.723,3.741H6.385A3.737,3.737,0,0,1,2.662,23.59V15.874a0.831,0.831,0,1,0-1.662,0V23.59A5.4,5.4,0,0,0,6.385,29h18.23A5.4,5.4,0,0,0,30,23.59V16A0.833,0.833,0,0,0,29.169,15.163ZM10.8,8.733L14.669,4.85V21.785a0.831,0.831,0,1,0,1.662,0V4.85L20.2,8.733a0.834,0.834,0,0,0,.585.247,0.8,0.8,0,0,0,.585-0.247,0.835,0.835,0,0,0,0-1.181l-5.281-5.3A0.839,0.839,0,0,0,15.5,2a0.8,0.8,0,0,0-.585.247l-5.281,5.3A0.831,0.831,0,0,0,10.8,8.733Z"/>
</svg>
